<?xml version="1.0" encoding="utf-8"?>
<!-- Generator: Adobe Illustrator 27.0.1, SVG Export Plug-In . SVG Version: 6.00 Build 0)  -->
<svg version="1.1" id="Layer_1" xmlns="http://www.w3.org/2000/svg" xmlns:xlink="http://www.w3.org/1999/xlink" x="0px" y="0px"
	 viewBox="0 0 512 512" style="enable-background:new 0 0 512 512;" xml:space="preserve">
<g transform="translate(0.000000,512.000000) scale(0.100000,-0.100000)">
	<path d="M540,4028c-157-79-137-341,29-388c25-8,661-10,2012-8l1975,3l42,28c127,83,116,297-18,365l-44,22H2560H584L540,4028z"/>
	<path d="M540,2748c-157-79-137-341,29-388c25-8,563-10,1692-8l1655,3l42,28c127,83,116,297-18,365l-44,22H2240H584L540,2748z"/>
	<path d="M540,1468c-157-79-137-340,29-388c24-8,365-10,1052-8l1015,3l42,28c127,83,116,297-18,365l-44,22H1600H584L540,1468z"/>
</g>
</svg>
